<svg width="131" height="132" viewBox="0 0 131 132" fill="none" xmlns="http://www.w3.org/2000/svg">
    <path d="M130.995 66C130.988 78.1292 127.67 90.0225 121.403 100.377C115.137 110.731 106.164 119.146 95.4675 124.701C94.8414 125.031 94.2051 125.347 93.5639 125.652C93.276 125.795 92.9933 125.927 92.7004 126.06C90.8725 126.905 88.9975 127.663 87.0754 128.335C85.5606 128.869 84.0054 129.353 82.435 129.77C67.6032 133.752 51.8563 132.371 37.9297 125.866C37.3592 125.596 36.7886 125.322 36.2281 125.037C25.8012 119.779 16.956 111.809 10.6064 101.952C4.25691 92.0955 0.633373 80.7081 0.110167 68.967C-0.41304 57.2258 2.18309 45.5568 7.63031 35.1656C13.0775 24.7743 21.1783 16.0377 31.0955 9.85855C41.0128 3.67936 52.3869 0.28168 64.0426 0.0165558C75.6983 -0.248568 87.2128 2.62848 97.3964 8.35045C107.58 14.0724 116.063 22.4318 121.97 32.5647C127.877 42.6977 130.992 54.2368 130.995 65.9898V66Z" fill="url(#paint0_linear_0_1)"/>
    <path d="M39.8535 106.742L32.6228 95.3554C32.6228 95.3554 52.6537 72.0116 54.6583 70.6321C54.6583 70.6321 44.5545 87.7201 39.8535 106.742Z" fill="url(#paint1_linear_0_1)"/>
    <path d="M70.2407 67.8681C68.3461 68.7928 66.3089 69.385 64.2168 69.6191C61.7981 69.9856 58.1222 68.6316 58.1222 68.6316C60.8994 66.4276 60.253 61.2304 60.253 61.2304L60.3136 61.1999C63.2776 60.9708 65.7569 59.2758 67.4888 57.6367C66.8627 62.0856 70.2407 67.8681 70.2407 67.8681Z" fill="url(#paint2_linear_0_1)"/>
    <path d="M70.2407 51.3147V54.3688C69.4514 55.5553 68.5298 56.6467 67.4939 57.6215V57.6215C65.7619 59.2657 63.2827 60.9607 60.3187 61.1847C58.9723 61.2884 57.62 61.0884 56.36 60.5993C48.281 57.5452 53.9615 41.3836 53.9615 41.3836C56.5266 34.8071 68.1402 37.9885 68.1402 37.9885C69.6954 39.8566 69.9933 45.0741 69.9327 45.5831C69.6738 46.2982 69.335 46.9813 68.9228 47.6192C68.9228 47.6192 71.1294 45.522 71.8868 46.9167C72.6442 48.3115 70.2407 51.3147 70.2407 51.3147Z" fill="url(#paint3_linear_0_1)"/>
    <path d="M70.2407 54.379V51.3249C70.2407 51.3249 72.6392 48.3471 71.8818 46.9422C71.1244 45.5373 68.9178 47.6446 68.9178 47.6446C69.33 47.0068 69.6688 46.3237 69.9277 45.6085C69.9882 45.0995 69.7358 40.1772 68.1351 38.0139C68.1351 38.0139 56.5215 34.8325 53.9564 41.4091C53.9564 41.4091 50.6339 40.559 47.7709 36.5734C43.0902 30.0528 48.6798 29.2536 54.219 30.5109C60.9398 32.038 67.6756 27.0292 75.3759 32.1194C83.0762 37.2096 76.1737 48.7797 70.2407 54.379Z" fill="#262F72"/>
    <path d="M87.7066 92.459C91.1604 102.823 93.7205 114.82 95.4675 124.701C94.8414 125.031 94.2052 125.347 93.5639 125.652C93.2761 125.795 92.9933 125.927 92.7005 126.06C90.8726 126.905 88.9976 127.663 87.0754 128.335C85.5606 128.869 84.0054 129.353 82.4351 129.77C67.6032 133.752 51.8564 132.371 37.9298 125.866C37.3592 125.596 36.7886 125.322 36.2281 125.037C37.238 119.809 38.4398 113.665 39.8486 106.747C40.3602 104.24 40.8971 101.63 41.4593 98.9185C44.3526 85.0273 48.5032 77.4632 51.9317 73.3656L51.9671 73.3248C52.6184 72.5458 53.3237 71.8144 54.0777 71.136C54.0988 71.1114 54.1225 71.0892 54.1484 71.0698C54.3201 70.9171 54.4918 70.7746 54.6534 70.6372C56.7186 68.9421 58.1223 68.6316 58.1223 68.6316L58.2485 68.6774H58.3192C59.4159 69.1135 60.5656 69.3994 61.7376 69.5275H61.9346H61.9649C62.7134 69.5997 63.4665 69.6117 64.2169 69.5631H64.2623C66.3463 69.4292 68.3763 68.8386 70.2105 67.8325V67.8325C72.3613 68.5496 74.3872 69.6025 76.2142 70.9528C81.4353 74.8163 91.9532 88.9824 91.9532 88.9824L87.7066 92.459Z" fill="url(#paint4_linear_0_1)"/>
    <path d="M106.94 111.802C106.909 113.217 105.632 116.088 103.764 119.57C101.128 121.487 98.3528 123.202 95.4624 124.701C94.8363 125.031 94.2001 125.347 93.5588 125.652C93.271 125.795 92.9882 125.927 92.6953 126.06C90.8675 126.905 88.9925 127.663 87.0704 128.335L91.948 112.662L79.3246 99.3003L87.7015 92.4591L91.948 88.9926C91.948 88.9926 107.071 106.33 106.94 111.802Z" fill="url(#paint5_linear_0_1)"/>
    <defs>
        <linearGradient id="paint0_linear_0_1" x1="65.7883" y1="7.16742" x2="63.5124" y2="137.263" gradientUnits="userSpaceOnUse">
            <stop stop-color="white" stop-opacity="0"/>
            <stop offset="1" stop-color="#64B5F6" stop-opacity="0.6"/>
        </linearGradient>
        <linearGradient id="paint1_linear_0_1" x1="45.2311" y1="68.2092" x2="41.3833" y2="103.452" gradientUnits="userSpaceOnUse">
            <stop stop-color="#42A5F5"/>
            <stop offset="1" stop-color="#1565C0"/>
        </linearGradient>
        <linearGradient id="paint2_linear_0_1" x1="9356.78" y1="2544.52" x2="9359.77" y2="2315.66" gradientUnits="userSpaceOnUse">
            <stop stop-color="#FFE082"/>
            <stop offset="1" stop-color="#FFA726"/>
        </linearGradient>
        <linearGradient id="paint3_linear_0_1" x1="14926.3" y1="4075.82" x2="15719.5" y2="4075.82" gradientUnits="userSpaceOnUse">
            <stop stop-color="#FFE082"/>
            <stop offset="1" stop-color="#FFA726"/>
        </linearGradient>
        <linearGradient id="paint4_linear_0_1" x1="42887.6" y1="15103.6" x2="48786.7" y2="20773.6" gradientUnits="userSpaceOnUse">
            <stop stop-color="#42A5F5"/>
            <stop offset="1" stop-color="#1565C0"/>
        </linearGradient>
        <linearGradient id="paint5_linear_0_1" x1="22948.9" y1="12265.9" x2="22545.5" y2="9747.27" gradientUnits="userSpaceOnUse">
            <stop stop-color="#FFE082"/>
            <stop offset="1" stop-color="#FFA726"/>
        </linearGradient>
    </defs>
</svg>
