<svg width="28" height="30" viewBox="0 0 28 30" fill="none" xmlns="http://www.w3.org/2000/svg">
    <path fill-rule="evenodd" clip-rule="evenodd" d="M0.958189 0.522319C0.611241 0.871404 0.495117 1.56815 0.495117 2.14948V27.6227C0.495117 28.2048 0.726653 28.7861 0.958189 29.2513L1.07431 29.3674L15.4281 15.0614V14.7123L0.958902 0.521606L0.958189 0.522319Z" fill="url(#paint0_linear_0_1)"/>
    <path fill-rule="evenodd" clip-rule="evenodd" d="M20.174 19.7135L15.4279 14.9446V14.5955L20.174 9.82727L20.2894 9.94411L25.9617 13.2006C27.5824 14.131 27.5824 15.6435 25.9617 16.5739L20.174 19.7142V19.7135Z" fill="url(#paint1_linear_0_1)"/>
    <path fill-rule="evenodd" clip-rule="evenodd" d="M20.2896 19.7134L15.3127 14.8284L0.958862 29.2499C1.65347 29.8319 2.69503 29.8319 3.38963 29.3667L20.2896 19.7134Z" fill="url(#paint2_linear_0_1)"/>
    <path fill-rule="evenodd" clip-rule="evenodd" d="M20.2894 9.94345L3.27473 0.405595C2.57941 -0.059614 1.53642 -0.059614 0.842529 0.522432L15.3118 14.8292L20.2894 9.94417V9.94345Z" fill="url(#paint3_linear_0_1)"/>
    <defs>
        <linearGradient id="paint0_linear_0_1" x1="13.9608" y1="27.7731" x2="-8.98647" y2="21.6521" gradientUnits="userSpaceOnUse">
            <stop stop-color="#4998D3"/>
            <stop offset="0.01" stop-color="#4A99D3"/>
            <stop offset="0.26" stop-color="#42BAEB"/>
            <stop offset="0.51" stop-color="#41C7F2"/>
            <stop offset="0.76" stop-color="#56C9E9"/>
            <stop offset="1" stop-color="#5BCAE8"/>
        </linearGradient>
        <linearGradient id="paint1_linear_0_1" x1="27.9484" y1="14.8117" x2="-0.0630045" y2="14.8117" gradientUnits="userSpaceOnUse">
            <stop stop-color="#FEE000"/>
            <stop offset="0.41" stop-color="#FEBD11"/>
            <stop offset="0.78" stop-color="#FAA51A"/>
            <stop offset="1" stop-color="#F99B1C"/>
        </linearGradient>
        <linearGradient id="paint2_linear_0_1" x1="7.83868" y1="21.7037" x2="-10.5687" y2="-9.22421" gradientUnits="userSpaceOnUse">
            <stop stop-color="#EF4149"/>
            <stop offset="1" stop-color="#C31E63"/>
        </linearGradient>
        <linearGradient id="paint3_linear_0_1" x1="-12.3203" y1="28.046" x2="-4.29652" y2="14.1744" gradientUnits="userSpaceOnUse">
            <stop stop-color="#32A072"/>
            <stop offset="0.07" stop-color="#2CA772"/>
            <stop offset="0.48" stop-color="#4BBA71"/>
            <stop offset="0.8" stop-color="#5EBD6B"/>
            <stop offset="1" stop-color="#66BE69"/>
        </linearGradient>
    </defs>
</svg>
